<svg width="64" height="43" viewBox="0 0 64 43" fill="none" xmlns="http://www.w3.org/2000/svg">
<path d="M55.77 12.08C54.2096 13.4722 52.1913 14.2411 50.1001 14.24C48.0393 14.2422 46.047 13.4999 44.49 12.1499C43.3697 12.671 42.3267 13.344 41.3901 14.1499C41.4387 14.5145 41.4619 14.8822 41.46 15.25C41.46 16.947 41.0191 18.6148 40.1802 20.09C43.9014 21.9423 46.9094 24.968 48.74 28.7C49.23 28.7 49.74 28.7 50.2 28.7C52.2308 28.7025 54.2582 28.5319 56.26 28.1899V22.5599C56.26 22.1621 56.4182 21.7806 56.6995 21.4993C56.9808 21.218 57.3622 21.0599 57.76 21.0599C58.1578 21.0599 58.5395 21.218 58.8208 21.4993C59.1021 21.7806 59.26 22.1621 59.26 22.5599V27.47C60.1748 27.1887 61.0515 26.7957 61.8701 26.2999C62.4775 25.959 62.9792 25.4574 63.3201 24.85C63.4385 24.607 63.5 24.3402 63.5 24.0699C63.5036 22.3225 63.162 20.5916 62.4944 18.9767C61.8268 17.3618 60.8466 15.8947 59.6101 14.6599C58.4885 13.5849 57.1892 12.7121 55.77 12.08Z" fill="#E2F163"/>
<path d="M50.0702 11.1999C50.8019 11.2008 51.5266 11.0574 52.2027 10.7777C52.8789 10.498 53.4929 10.0875 54.0101 9.56991C54.5281 9.05306 54.9389 8.43884 55.2186 7.76266C55.4984 7.08647 55.6417 6.36173 55.6402 5.62997C55.6486 4.88829 55.5085 4.15242 55.2286 3.46554C54.9487 2.77865 54.5345 2.15459 54.0101 1.62997C52.9526 0.613901 51.5365 0.0567469 50.0702 0.0799185C49.3285 0.0715984 48.5925 0.211512 47.9056 0.491418C47.2187 0.771323 46.5948 1.18559 46.0702 1.70992C45.5458 2.23454 45.1316 2.85861 44.8517 3.54549C44.5718 4.23238 44.432 4.96824 44.4403 5.70992C44.4388 6.44169 44.5819 7.16655 44.8617 7.84274C45.1414 8.51892 45.5522 9.13302 46.0702 9.64987C46.6014 10.1598 47.2283 10.5594 47.9149 10.8254C48.6015 11.0915 49.3341 11.2188 50.0702 11.1999Z" fill="#E2F163"/>
<path d="M13.3001 28.74C13.7901 28.74 14.3 28.74 14.76 28.74C16.5591 25.0757 19.4906 22.0882 23.1201 20.22C22.2489 18.723 21.7899 17.0219 21.79 15.2899C21.7948 14.8552 21.8249 14.4212 21.8801 13.99C20.9709 13.2182 19.9618 12.5723 18.8801 12.0699C17.3162 13.4628 15.2943 14.2317 13.2 14.23C11.1423 14.2315 9.15359 13.4893 7.6001 12.14C6.22843 12.7866 4.97719 13.6625 3.90015 14.73C2.66233 15.9643 1.68052 17.431 1.01124 19.0459C0.341953 20.6608 -0.00175818 22.392 6.76277e-06 24.14C0.00346673 24.411 0.0686194 24.6777 0.190192 24.9199C0.342454 25.2275 0.552894 25.5027 0.810065 25.73C1.64167 26.4458 2.60703 26.9896 3.65015 27.33L4.00001 27.45V22.63C4.00001 22.2322 4.15816 21.8506 4.43946 21.5693C4.72076 21.288 5.10218 21.13 5.50001 21.13C5.89783 21.13 6.27949 21.288 6.5608 21.5693C6.8421 21.8506 7.00001 22.2322 7.00001 22.63V28.22C9.08028 28.581 11.1887 28.755 13.3001 28.74Z" fill="#E2F163"/>
<path d="M13.1903 11.2C13.9222 11.2026 14.6473 11.0597 15.3236 10.7799C15.9999 10.5001 16.614 10.0889 17.1302 9.56998C17.6519 9.0553 18.0654 8.4417 18.347 7.76517C18.6286 7.08864 18.7725 6.36283 18.7701 5.63004C18.7788 4.88742 18.6383 4.15057 18.3566 3.46341C18.0748 2.77625 17.6578 2.15281 17.1302 1.63004C16.614 1.11112 15.9999 0.69976 15.3236 0.419956C14.6473 0.140152 13.9222 -0.00253266 13.1903 3.40219e-05C12.4585 -0.00143065 11.7337 0.141802 11.0575 0.421543C10.3813 0.701284 9.76696 1.11202 9.25011 1.63004C8.72577 2.15466 8.31151 2.77873 8.0316 3.46561C7.7517 4.15249 7.6119 4.88836 7.62022 5.63004C7.61876 6.3618 7.76187 7.08654 8.04161 7.76273C8.32135 8.43891 8.73208 9.05313 9.25011 9.56998C9.76696 10.088 10.3813 10.4987 11.0575 10.7785C11.7337 11.0582 12.4585 11.2015 13.1903 11.2Z" fill="#E2F163"/>
<path d="M43.0701 25.7699C41.699 24.3998 40.0893 23.2918 38.3201 22.5C36.5098 24.1729 34.1352 25.1014 31.6702 25.1C29.2503 25.0993 26.9165 24.2014 25.1202 22.58C23.4148 23.3657 21.861 24.4455 20.5301 25.7699C19.0454 27.2465 17.8683 29.0029 17.0667 30.9374C16.2651 32.8718 15.855 34.946 15.8602 37.0399C15.8633 37.3871 15.9454 37.7291 16.1001 38.0399C16.3008 38.4183 16.5685 38.7571 16.8902 39.0399C17.9003 39.9035 19.0685 40.5624 20.3301 40.98L21.3301 41.3099V35.0699C21.3301 34.6721 21.488 34.2906 21.7693 34.0093C22.0506 33.728 22.4323 33.5699 22.8301 33.5699C23.228 33.5699 23.6094 33.728 23.8907 34.0093C24.172 34.2906 24.3301 34.6721 24.3301 35.0699V42.0699C26.7978 42.5197 29.3018 42.7407 31.8101 42.73C34.2335 42.7323 36.6525 42.5248 39.0401 42.11V35.11C39.0401 34.7122 39.1982 34.3306 39.4795 34.0493C39.7608 33.768 40.1423 33.61 40.5401 33.61C40.9379 33.61 41.3196 33.768 41.6009 34.0493C41.8822 34.3306 42.0401 34.7122 42.0401 35.11V41.4199C43.3273 41.0699 44.5592 40.5415 45.7 39.85C46.4598 39.4266 47.0866 38.7997 47.5101 38.0399C47.6648 37.7291 47.7469 37.3871 47.75 37.0399C47.7539 34.9453 47.3422 32.8707 46.5389 30.9362C45.7355 29.0017 44.5566 27.2457 43.0701 25.7699Z" fill="#E2F163"/>
<path d="M24.7901 15.26C24.7878 16.1573 24.9634 17.0461 25.3067 17.8751C25.65 18.7042 26.1541 19.457 26.7901 20.09C27.4234 20.7255 28.1762 21.2294 29.0051 21.5726C29.8341 21.9159 30.7229 22.0917 31.6201 22.09C32.519 22.0925 33.4093 21.9171 34.24 21.5739C35.0707 21.2306 35.8251 20.7262 36.46 20.09C37.096 19.457 37.6003 18.7042 37.9436 17.8751C38.2869 17.0461 38.4623 16.1573 38.46 15.26C38.4623 14.3627 38.2869 13.4738 37.9436 12.6448C37.6003 11.8157 37.096 11.0629 36.46 10.4299C35.1752 9.14853 33.4347 8.42923 31.6201 8.42993C29.8088 8.43078 28.0717 9.15004 26.7901 10.4299C26.1541 11.0629 25.65 11.8157 25.3067 12.6448C24.9634 13.4738 24.7878 14.3627 24.7901 15.26Z" fill="#E2F163"/>
</svg>
