<svg width="183" height="85" viewBox="0 0 183 85" fill="none" xmlns="http://www.w3.org/2000/svg">
<path d="M84.3805 27.8297H46.2575L43.8439 37.743H81.9669L76.3755 61.1255H38.2504L32.659 84.7606H0L20.332 0H91.114L84.3805 27.8297Z" fill="#896CFE"/>
<path d="M155.047 0C169.153 0 173.348 0.762084 177.54 3.68515C180.718 5.9714 182.37 9.91128 182.37 14.9953C182.37 23.1277 178.177 32.279 172.331 36.5989C169.281 38.8851 165.343 40.4114 158.987 41.8082L158.86 42.3155C164.833 43.205 166.103 43.5871 168.136 44.7313C171.822 47.0175 173.728 50.4479 173.728 55.4067C173.728 66.0822 167.247 77.1376 158.35 81.5848C153.776 83.7458 147.55 84.7626 137.129 84.7626H81.8496L102.182 0.00208755H155.047V0Z" fill="#896CFE"/>
<path d="M149.954 41.0133C146.893 40.5247 144.224 38.7312 142.598 36.1484L138.42 44.9239C141.205 47.4691 144.707 49.1978 148.546 49.8117C150.977 50.2 153.261 48.5464 153.649 46.1161C154.04 43.6858 152.384 41.4016 149.954 41.0133Z" fill="#E2F163"/>
<path d="M117.018 59.2777C118.717 58.6451 120.438 57.7327 122.052 56.4758C121.334 56.0122 120.684 55.5195 120.108 54.9954C118.77 53.7803 117.818 52.4252 117.181 51.0827C116.922 50.5378 116.717 49.9991 116.55 49.4688C116.12 49.8007 115.68 50.0847 115.222 50.3311C114.264 50.8468 113.239 51.1996 112.182 51.4209C111.128 51.6423 110.046 51.732 109.027 51.732C107.578 51.732 106.257 51.5504 105.336 51.3708C104.875 51.2811 104.516 51.1934 104.286 51.1328C104.171 51.1036 104.092 51.0785 104.046 51.066L104.008 51.0556H104.006C101.672 50.3144 99.1726 51.5963 98.4168 53.9306C97.6588 56.2711 98.945 58.7829 101.286 59.5408C101.423 59.5846 102.273 59.854 103.63 60.1191C104.987 60.3822 106.85 60.6432 109.025 60.6453C110.387 60.6453 111.869 60.543 113.427 60.259C114.594 60.0461 115.801 59.7329 117.018 59.2777Z" fill="#E2F163"/>
<path d="M150.434 70.1369H146.033C146.108 69.8467 146.156 69.5461 146.173 69.235C146.177 69.1661 146.187 68.9259 146.187 68.5439C146.187 67.6482 146.131 65.9716 145.768 63.8586C145.494 62.2739 145.047 60.4449 144.298 58.5198C143.736 57.0771 143.001 55.5801 142.032 54.1102C141.306 53.0099 140.448 51.9241 139.439 50.9032C137.927 49.3706 136.069 47.9822 133.867 46.8986C133.846 46.8881 133.823 46.8777 133.8 46.8672L140.953 31.8427L141.287 31.0472C142.713 27.6418 141.107 23.727 137.702 22.301C137.224 22.1005 136.735 21.9627 136.245 21.8792C135.825 21.7226 135.393 21.6328 134.961 21.6057C134.858 21.5848 134.75 21.5639 134.631 21.541C133.651 21.3572 132.15 21.1484 130.277 21.1484C127.782 21.1464 124.605 21.5222 121.078 22.7937C117.552 24.0611 113.697 26.2304 109.866 29.6922C108.039 31.3395 107.895 34.1582 109.542 35.9851C111.19 37.812 114.008 37.9561 115.835 36.3087C118.852 33.5903 121.652 32.0619 124.099 31.1767C125.049 30.8342 125.947 30.592 126.786 30.4208L120.585 43.5057C120.581 43.5203 120.577 43.5391 120.571 43.5663C120.554 43.6435 120.527 43.773 120.5 43.9442C120.445 44.2887 120.387 44.8002 120.387 45.412C120.387 46.101 120.46 46.9111 120.683 47.7504C120.907 48.5919 121.272 49.4583 121.869 50.3081C122.268 50.8739 122.771 51.4356 123.421 51.9763C124.133 52.5693 125.028 53.1393 126.16 53.6508C127.258 53.868 128.219 54.1624 129.069 54.5069C130.052 54.9078 130.887 55.3796 131.618 55.9037C132.894 56.8203 133.864 57.8997 134.641 59.0898C135.222 59.9814 135.685 60.9355 136.048 61.8918C136.593 63.3262 136.911 64.771 137.08 65.9695C137.251 67.1658 137.276 68.1117 137.276 68.5459C137.276 68.6545 137.274 68.7297 137.274 68.7714L137.272 68.8049H137.274C137.253 69.2663 137.303 69.7131 137.414 70.139H114.823C113.9 70.139 113.152 70.8865 113.152 71.8093C113.152 72.7322 113.9 73.4797 114.823 73.4797H150.436C151.359 73.4797 152.106 72.7322 152.106 71.8093C152.104 70.8844 151.357 70.1369 150.434 70.1369Z" fill="#E2F163"/>
<path d="M106.72 70.1328H102.697C101.774 70.1328 101.026 70.8803 101.026 71.8031C101.026 72.726 101.774 73.4735 102.697 73.4735H106.72C107.643 73.4735 108.39 72.726 108.39 71.8031C108.39 70.8803 107.643 70.1328 106.72 70.1328Z" fill="#E2F163"/>
<path d="M141.719 21.3738C144.655 21.3738 147.035 18.9938 147.035 16.058C147.035 13.1222 144.655 10.7422 141.719 10.7422C138.783 10.7422 136.403 13.1222 136.403 16.058C136.403 18.9938 138.783 21.3738 141.719 21.3738Z" fill="#E2F163"/>
</svg>
