<svg width="41" height="43" viewBox="0 0 41 43" fill="none" xmlns="http://www.w3.org/2000/svg">
<path d="M22.0356 25.1231C22.0345 23.7458 22.305 22.3818 22.8315 21.1092C23.3581 19.8365 24.1303 18.6802 25.1042 17.7063C26.0781 16.7324 27.2345 15.96 28.5072 15.4335C29.7799 14.9069 31.1438 14.6365 32.5211 14.6376C33.1511 14.6406 33.7796 14.6998 34.3992 14.8145C34.1419 14.3944 33.8607 13.9894 33.557 13.6016C30.7777 10.2328 25.9182 7.6388 22.0271 10.915C21.6799 11.2242 21.351 11.5533 21.0418 11.9004C20.1741 13.0143 19.4365 14.2236 18.8435 15.505C18.7723 15.6549 18.6721 15.7893 18.5489 15.9005C18.4256 16.0117 18.2817 16.0976 18.1253 16.1531C17.9689 16.2087 17.803 16.2328 17.6372 16.2242C17.4714 16.2156 17.309 16.1745 17.1591 16.1031C17.0092 16.0318 16.8749 15.9317 16.7637 15.8084C16.6525 15.6852 16.5665 15.5412 16.511 15.3847C16.4555 15.2283 16.4315 15.0625 16.4401 14.8967C16.4487 14.7309 16.4898 14.5685 16.5612 14.4186C16.637 14.2586 16.7128 14.1154 16.797 13.9638C14.6813 13.8993 12.5854 13.5335 10.573 12.8773C9.05843 12.3684 7.63633 11.6175 6.36189 10.6539C5.07729 11.4347 3.93752 12.432 2.99304 13.6016C-0.594791 17.998 -0.603196 23.5145 1.11492 28.7615V28.8794C2.86672 34.1264 6.53044 41.0662 12.367 42.5064C13.3426 42.7297 14.356 42.7297 15.3316 42.5064C16.4517 42.2706 17.3528 41.4453 18.574 41.5884C19.4751 41.6895 20.2584 42.279 21.1006 42.5149C22.0846 42.7633 23.115 42.7633 24.0989 42.5149C27.5689 41.6726 30.2639 38.8596 32.2599 35.6255C29.5202 35.5616 26.9147 34.4259 25.003 32.4623C23.0914 30.4986 22.026 27.8636 22.0356 25.1231Z" fill="#E2F163"/>
<path d="M9.77284 9.77808C12.0695 10.8576 14.5709 11.432 17.1085 11.4625C16.9593 10.634 16.731 9.82173 16.4264 9.03693C15.3794 6.25858 13.4193 3.91845 10.8678 2.40029C8.59424 1.08634 6.06839 0.268342 3.45624 0C3.56748 1.34628 3.87689 2.66869 4.37433 3.92464C5.37541 6.48418 7.30243 8.57368 9.77284 9.77808Z" fill="#E2F163"/>
<path d="M38.1807 30.7239C38.9206 29.9858 39.5075 29.1088 39.9079 28.1434C40.3082 27.178 40.5141 26.143 40.5136 25.0979C40.5147 24.0514 40.3092 23.0151 39.9089 22.0482C39.5086 21.0813 38.9212 20.203 38.1807 19.4636C37.4424 18.7244 36.5653 18.1385 35.5997 17.7395C34.6342 17.3406 33.5994 17.1366 32.5547 17.139C31.5088 17.1364 30.4725 17.3403 29.5056 17.7392C28.5387 18.1381 27.6602 18.7242 26.9204 19.4636C26.1719 20.2036 25.5779 21.085 25.173 22.0566C24.7682 23.0282 24.5606 24.0706 24.5622 25.1232C24.5606 26.1677 24.7651 27.2023 25.164 28.1677C25.5629 29.1331 26.1483 30.0104 26.8867 30.7492C27.6261 31.4898 28.5044 32.077 29.4713 32.4773C30.4382 32.8777 31.4745 33.0832 32.521 33.0821C33.5737 33.0841 34.6161 32.8767 35.5878 32.4718C36.5595 32.0669 37.4409 31.4728 38.1807 30.7239ZM32.0915 28.4163C31.8677 28.6605 31.5571 28.8071 31.2262 28.8244C30.8954 28.8418 30.571 28.7284 30.323 28.5089L28.2509 26.6897C28.0001 26.4676 27.847 26.1555 27.8249 25.8212C27.8028 25.4868 27.9136 25.1573 28.1331 24.9042C28.3552 24.6533 28.6673 24.5003 29.0017 24.4782C29.336 24.4561 29.6656 24.5668 29.9187 24.7863L31.064 25.797L35.1992 21.2995C35.3107 21.1775 35.4452 21.0788 35.595 21.009C35.7448 20.9391 35.9069 20.8994 36.0721 20.8924C36.2372 20.8854 36.4021 20.911 36.5573 20.9679C36.7125 21.0247 36.8549 21.1117 36.9764 21.2237C37.0986 21.336 37.1975 21.4712 37.2675 21.6217C37.3375 21.7722 37.3771 21.935 37.3841 22.1008C37.3911 22.2666 37.3656 22.4322 37.3086 22.588C37.2517 22.7439 37.1645 22.887 37.0522 23.0092L32.0915 28.4163Z" fill="#E2F163"/>
</svg>
