<svg width="48" height="45" viewBox="0 0 48 45" fill="none" xmlns="http://www.w3.org/2000/svg">
<circle cx="25.5" cy="22.5" r="22.5" fill="#E2F163"/>
<circle cx="6.5" cy="9.5" r="6.5" fill="#B3A0FF"/>
<path d="M14.3898 30.9713C14.6793 31.3983 15.0981 31.7148 15.5811 31.8714C16.9795 32.298 18.4132 32.5912 19.864 32.7475C21.7306 32.9659 23.608 33.0727 25.4866 33.0676C27.3665 33.0728 29.245 32.966 31.1128 32.7475C32.5636 32.5912 33.9973 32.298 35.3958 31.8714C35.8788 31.7148 36.2977 31.3983 36.5872 30.9713C36.8579 30.5679 37.0019 30.089 37 29.599C36.9998 29.2772 36.9366 28.9588 36.8142 28.6626C36.6918 28.3664 36.5126 28.0985 36.2874 27.8749C35.547 27.1052 35.0109 26.1534 34.73 25.1104C34.4701 24.2147 34.3389 23.2848 34.3406 22.3501C34.3406 21.9501 34.3601 21.634 34.3796 21.374C34.4107 21.026 34.4341 20.6698 34.4341 20.3058C34.4362 19.92 34.4074 19.5347 34.3484 19.1537C34.0088 17.0115 32.9411 15.0625 31.3348 13.6529C30.3367 12.7688 29.1596 12.1238 27.8889 11.7647C28.2442 11.2549 28.4348 10.6434 28.434 10.0164C28.434 9.21642 28.1247 8.4492 27.5741 7.88352C27.0235 7.31783 26.2768 7 25.4982 7C24.7203 7.00106 23.9745 7.31941 23.4248 7.88498C22.875 8.45055 22.5664 9.21711 22.5664 10.0164C22.5656 10.6434 22.7562 11.2549 23.1115 11.7647C21.8408 12.1238 20.6637 12.7688 19.6656 13.6529C18.0593 15.0625 16.9914 17.0115 16.6518 19.1537C16.5928 19.5347 16.5642 19.92 16.5662 20.3058C16.5662 20.6698 16.5897 21.026 16.6208 21.374C16.6208 21.634 16.6596 21.9661 16.6596 22.3501C16.6657 23.2837 16.5412 24.2133 16.2898 25.1104C16.0033 26.1555 15.4602 27.1074 14.7128 27.8749C14.4876 28.0985 14.3086 28.3664 14.1862 28.6626C14.0637 28.9588 14.0006 29.2772 14.0004 29.599C13.9916 30.0864 14.1274 30.5651 14.3898 30.9713ZM24.5132 11.0206C24.2593 10.7519 24.1193 10.3909 24.1238 10.0164C24.1199 9.64328 24.2599 9.28372 24.5132 9.01629C24.7737 8.75641 25.1235 8.61264 25.4866 8.61623C25.851 8.61158 26.2023 8.75542 26.4638 9.01629C26.7171 9.28372 26.8571 9.64328 26.8532 10.0164C26.8577 10.3909 26.7177 10.7519 26.4638 11.0206C26.2023 11.2814 25.851 11.4253 25.4866 11.4206C25.3048 11.4242 25.1241 11.3907 24.955 11.3221C24.7859 11.2534 24.6317 11.1509 24.5014 11.0206H24.5132Z" fill="#232323"/>
<path d="M27.0244 33.7476C26.9229 33.7347 26.8199 33.7425 26.7213 33.7706C26.6228 33.7986 26.5307 33.8463 26.45 33.9109C26.3694 33.9756 26.302 34.0559 26.2516 34.1473C26.2011 34.2387 26.1686 34.3394 26.1561 34.4437C26.1248 34.7061 26.0016 34.9479 25.8095 35.1238C25.6145 35.3024 25.3622 35.4007 25.101 35.3998C24.8428 35.4002 24.5935 35.3035 24.4002 35.1278C24.2072 34.9537 24.0825 34.7134 24.0496 34.4517C24.0225 34.2418 23.9156 34.0514 23.7521 33.9224C23.5886 33.7935 23.3819 33.7364 23.1775 33.7636C23.076 33.777 22.9779 33.8107 22.8891 33.863C22.8003 33.9152 22.7224 33.9849 22.6598 34.0682C22.5973 34.1514 22.5514 34.2465 22.5247 34.348C22.4979 34.4495 22.4908 34.5555 22.5039 34.6597C22.5863 35.3038 22.8933 35.8951 23.3682 36.3239C23.8456 36.7599 24.4623 37.0005 25.101 37C25.7444 36.9994 26.3651 36.7559 26.8453 36.3159C27.3206 35.8818 27.6253 35.2843 27.702 34.6357C27.7262 34.4257 27.6685 34.2145 27.5415 34.048C27.4146 33.8816 27.2286 33.7736 27.0244 33.7476Z" fill="#232323"/>
</svg>
