<svg width="48" height="45" viewBox="0 0 48 45" fill="none" xmlns="http://www.w3.org/2000/svg">
<circle cx="25.5" cy="22.5" r="22.5" fill="#E2F163"/>
<circle cx="6.5" cy="9.5" r="6.5" fill="#B3A0FF"/>
<path d="M15.1879 17.8617C14.7308 17.6233 14.3234 17.3004 13.9875 16.9102C13.652 16.5154 13.4291 16.038 13.3422 15.528C13.3082 15.3457 13.291 15.1606 13.2907 14.9752C13.2867 14.4762 13.3994 13.9832 13.6198 13.5351C13.8141 13.1245 14.151 12.7979 14.5684 12.6158C14.7865 12.5223 15.0215 12.4742 15.2589 12.4744C15.8356 12.4894 16.3856 12.7187 16.8011 13.1173C16.8011 12.6415 16.7624 12.1594 16.7624 11.6901V11.5422C16.2946 11.3116 15.7809 11.1885 15.2589 11.1822C14.8492 11.1834 14.4437 11.2642 14.065 11.4201C13.3714 11.7237 12.8072 12.2608 12.4712 12.9373C12.1567 13.5683 11.9953 14.2642 12.0001 14.9687C12.0007 15.2296 12.0244 15.4899 12.071 15.7466C12.1895 16.4731 12.5016 17.1547 12.9745 17.7202C13.6508 18.4813 14.5068 19.0625 15.4653 19.411C16.3816 19.7494 17.3167 20.0349 18.266 20.266C18.6971 20.3805 19.1162 20.5355 19.5178 20.7289C19.1113 20.1631 18.7241 19.5717 18.3627 18.961C17.2659 18.7162 16.2007 18.3474 15.1879 17.8617Z" fill="#232323"/>
<path d="M39.5482 12.9437C39.2122 12.2672 38.6479 11.7301 37.9543 11.4265C37.5759 11.2701 37.1702 11.1893 36.7604 11.1886C36.2385 11.1949 35.7248 11.318 35.257 11.5487C35.257 11.6001 35.257 11.6451 35.257 11.6965C35.257 12.1658 35.2569 12.648 35.2118 13.1301C35.6259 12.7294 36.1768 12.4997 36.754 12.4873C36.9934 12.4876 37.2305 12.5357 37.451 12.6287C37.8653 12.813 38.1995 13.1392 38.3931 13.548C38.6135 13.9961 38.7262 14.4891 38.7222 14.988C38.7208 15.1732 38.7056 15.358 38.677 15.5409C38.5898 16.0508 38.3669 16.5281 38.0317 16.9231C37.4891 17.5093 36.8082 17.9512 36.0507 18.2088C35.2619 18.5053 34.456 18.7543 33.6373 18.9546C33.2759 19.5653 32.8887 20.1567 32.4886 20.7225C32.888 20.5291 33.305 20.3741 33.734 20.2596C35.0193 19.9777 36.2669 19.5462 37.451 18.9738C38.0551 18.6491 38.5916 18.2128 39.0319 17.6881C39.4986 17.1187 39.8099 16.4389 39.9355 15.7145C39.9799 15.4576 40.0014 15.1973 39.9999 14.9366C40.0047 14.2466 39.8502 13.5647 39.5482 12.9437Z" fill="#232323"/>
<path d="M31.6368 29.6005H30.3461C29.9129 29.6014 29.484 29.5153 29.0848 29.3474C28.6857 29.1795 28.3245 28.9333 28.023 28.6234C27.4316 28.0226 27.1004 27.2147 27.1002 26.3733C27.1016 25.9115 27.2028 25.4554 27.3971 25.0361C28.0903 23.6144 28.9295 22.2679 29.9009 21.0182C30.7969 19.8608 31.6078 18.6405 32.3273 17.3667C32.719 16.5562 32.9761 15.6877 33.0887 14.7952C33.2408 13.7629 33.3142 12.7206 33.3082 11.6772C33.3082 10.5393 33.2372 9.44645 33.1533 8.55286C33.1325 8.40482 33.0604 8.26865 32.9497 8.16774C32.839 8.06684 32.6964 8.00752 32.5466 8H19.447C19.2971 8.00752 19.1546 8.06684 19.0439 8.16774C18.9331 8.26865 18.8611 8.40482 18.8403 8.55286C18.7564 9.44645 18.6919 10.5393 18.6919 11.6772C18.6837 12.7204 18.755 13.7627 18.9049 14.7952C19.0175 15.6877 19.2746 16.5562 19.6663 17.3667C20.3881 18.6405 21.2011 19.8609 22.0991 21.0182C23.0683 22.2694 23.9073 23.6157 24.603 25.0361C24.7919 25.4524 24.8908 25.9036 24.8933 26.3605C24.8916 27.1965 24.5629 27.999 23.9771 28.5977C23.6788 28.9078 23.3199 29.154 22.9226 29.3209C22.5253 29.4878 22.098 29.572 21.6668 29.5684H20.5182C20.1659 29.5715 19.8227 29.6797 19.5329 29.8791C19.243 30.0785 19.0197 30.3599 18.892 30.687H33.2565C33.1241 30.367 32.8997 30.0931 32.6115 29.8997C32.3233 29.7064 31.9842 29.6023 31.6368 29.6005Z" fill="#232323"/>
<path d="M34.489 32.6478H17.5239C16.8896 32.6478 16.3753 33.1601 16.3753 33.7921V35.8557C16.3753 36.4877 16.8896 37 17.5239 37H34.489C35.1234 37 35.6377 36.4877 35.6377 35.8557V33.7921C35.6377 33.1601 35.1234 32.6478 34.489 32.6478Z" fill="#232323"/>
</svg>
