<svg width="45" height="45" viewBox="0 0 45 45" fill="none" xmlns="http://www.w3.org/2000/svg">
<circle cx="22.5" cy="22.5" r="22.5" fill="#B3A0FF"/>
<path d="M29.5757 15.6852C28.7321 15.6852 27.9231 15.3589 27.3265 14.778C26.73 14.1972 26.3948 13.4095 26.3948 12.588V7H13.0332C12.4936 6.99935 11.9756 7.20682 11.5927 7.57705C11.2125 7.94985 10.9993 8.45416 11 8.97956V35.0277C10.9992 35.2858 11.0512 35.5414 11.1529 35.7797C11.2547 36.018 11.4042 36.2342 11.5927 36.4156C11.781 36.6013 12.0053 36.7485 12.2526 36.8489C12.4999 36.9492 12.7653 37.0006 13.0332 37H32.9668C33.2347 37.0006 33.5001 36.9492 33.7474 36.8489C33.9947 36.7485 34.219 36.6013 34.4073 36.4156C34.5958 36.2342 34.7453 36.018 34.847 35.7797C34.9488 35.5414 35.0008 35.2858 35 35.0277V15.6852H29.5757ZM14.4211 10.8276H18.7274C19.0259 10.8276 19.3121 10.943 19.5232 11.1485C19.7342 11.354 19.8528 11.6327 19.8528 11.9233C19.8528 12.2139 19.7342 12.4926 19.5232 12.6981C19.3121 12.9036 19.0259 13.019 18.7274 13.019H14.4211C14.1226 13.019 13.8364 12.9036 13.6254 12.6981C13.4143 12.4926 13.2958 12.2139 13.2958 11.9233C13.2958 11.6327 13.4143 11.354 13.6254 11.1485C13.8364 10.943 14.1226 10.8276 14.4211 10.8276ZM14.4211 17.1388H23.0262C23.3247 17.1388 23.6109 17.2542 23.822 17.4597C24.033 17.6652 24.1516 17.9439 24.1516 18.2345C24.1516 18.5251 24.033 18.8038 23.822 19.0093C23.6109 19.2147 23.3247 19.3302 23.0262 19.3302H14.4211C14.1226 19.3302 13.8364 19.2147 13.6254 19.0093C13.4143 18.8038 13.2958 18.5251 13.2958 18.2345C13.2958 17.9439 13.4143 17.6652 13.6254 17.4597C13.8364 17.2542 14.1226 17.1388 14.4211 17.1388ZM14.301 23.9613H31.6764C31.9749 23.9613 32.2611 24.0767 32.4722 24.2822C32.6832 24.4877 32.8018 24.7664 32.8018 25.057C32.8018 25.3476 32.6832 25.6262 32.4722 25.8317C32.2611 26.0372 31.9749 26.1527 31.6764 26.1527H14.2711C13.9726 26.1527 13.6864 26.0372 13.4754 25.8317C13.2643 25.6262 13.1458 25.3476 13.1458 25.057C13.1428 24.9113 13.1696 24.7664 13.2248 24.631C13.28 24.4955 13.3625 24.3721 13.4673 24.268C13.5721 24.1639 13.6972 24.0813 13.8352 24.0248C13.9732 23.9684 14.1214 23.9393 14.2711 23.9394L14.301 23.9613ZM31.8189 32.7049H14.4211C14.1226 32.7049 13.8364 32.5895 13.6254 32.384C13.4143 32.1785 13.2958 31.8998 13.2958 31.6092C13.2958 31.3186 13.4143 31.0399 13.6254 30.8344C13.8364 30.6289 14.1226 30.5135 14.4211 30.5135H31.849C32.1474 30.5135 32.4337 30.6289 32.6447 30.8344C32.8558 31.0399 32.9743 31.3186 32.9743 31.6092C32.9744 31.7556 32.9443 31.9005 32.8858 32.0354C32.8274 32.1702 32.7419 32.2924 32.6342 32.3945C32.5265 32.4966 32.3989 32.5767 32.2589 32.63C32.1189 32.6833 31.9692 32.7088 31.8189 32.7049Z" fill="white"/>
<path d="M29.5757 13.4938H35L28.6455 7.4894V12.6026C28.6464 12.7206 28.6713 12.8373 28.7186 12.9459C28.7659 13.0546 28.8346 13.153 28.921 13.2358C29.0074 13.3185 29.1097 13.384 29.222 13.4282C29.3344 13.4725 29.4545 13.4948 29.5757 13.4938Z" fill="white"/>
</svg>
