<svg width="45" height="45" viewBox="0 0 45 45" fill="none" xmlns="http://www.w3.org/2000/svg">
<circle cx="22.5" cy="22.5" r="22.5" fill="#B3A0FF"/>
<path d="M34.0857 16.1458L28.9752 14.8427C28.3434 14.6794 27.7965 14.2788 27.4457 13.7222L24.6417 9.20246C24.4173 8.83151 24.1018 8.52577 23.7259 8.31506C23.35 8.10435 22.9265 7.99584 22.4969 8.00012C22.0683 7.99693 21.6462 8.10596 21.2715 8.31662C20.8968 8.52728 20.5821 8.83243 20.3582 9.20246L17.548 13.7222C17.2011 14.2797 16.6558 14.6809 16.0249 14.8427L10.9144 16.1458C10.4987 16.2514 10.1162 16.4623 9.80302 16.7585C9.48981 17.0548 9.25614 17.4267 9.12378 17.8395C8.99141 18.2523 8.96464 18.6923 9.04621 19.1183C9.12779 19.5444 9.31494 19.9425 9.59006 20.2752L12.9661 24.3732C13.3835 24.8792 13.5927 25.5283 13.5505 26.1862L13.196 31.5117C13.1731 31.8619 13.2213 32.2132 13.3377 32.5439C13.454 32.8745 13.6362 33.1775 13.8727 33.4341C14.1092 33.6907 14.3952 33.8955 14.713 34.0358C15.0307 34.1762 15.3736 34.2491 15.7202 34.25C16.0438 34.2498 16.3644 34.1879 16.6653 34.0675L21.5581 32.0783C21.8572 31.9591 22.1755 31.8973 22.4969 31.8957C22.8203 31.8966 23.1408 31.9585 23.4419 32.0783L28.3348 34.0675C28.6357 34.1879 28.9563 34.2498 29.2799 34.25C29.6265 34.2491 29.9692 34.1762 30.287 34.0358C30.6047 33.8955 30.8907 33.6907 31.1273 33.4341C31.3638 33.1775 31.5459 32.8745 31.6623 32.5439C31.7787 32.2132 31.8269 31.8619 31.8039 31.5117L31.4496 26.1862C31.4074 25.5283 31.6166 24.8792 32.034 24.3732L35.4099 20.2752C35.685 19.9425 35.8722 19.5444 35.9537 19.1183C36.0353 18.6923 36.0087 18.2523 35.8763 17.8395C35.744 17.4267 35.5101 17.0548 35.1969 16.7585C34.8837 16.4623 34.5014 16.2514 34.0857 16.1458Z" fill="white"/>
</svg>
