<svg width="48" height="45" viewBox="0 0 48 45" fill="none" xmlns="http://www.w3.org/2000/svg">
<circle cx="25.5" cy="22.5" r="22.5" fill="#E2F163"/>
<circle cx="6.5" cy="9.5" r="6.5" fill="#B3A0FF"/>
<path d="M34.3627 21.1624C34.2151 18.9521 33.2739 16.8725 31.7162 15.3146C30.1586 13.7567 28.0918 12.8277 25.9044 12.7023H25.1139C22.9264 12.8277 20.8596 13.7567 19.302 15.3146C17.7444 16.8725 16.8034 18.9521 16.6557 21.1624C16.6557 21.3345 16.6557 21.5128 16.6557 21.685C16.6584 23.2794 17.0779 24.8448 17.8718 26.2224C18.3221 26.9264 18.8328 27.5888 19.3981 28.2022C20.0677 28.9274 20.616 29.758 21.0216 30.6615C21.277 31.2763 21.4472 31.8911 21.6296 32.4076C21.7504 32.7556 21.9748 33.0571 22.2721 33.2708C22.5695 33.4844 22.9249 33.5995 23.2897 33.6003H27.7651C28.1305 33.599 28.4865 33.4837 28.7847 33.2703C29.0829 33.0568 29.3086 32.7556 29.4312 32.4076C29.6197 31.8727 29.79 31.2763 30.0393 30.6615C30.4471 29.7593 30.9952 28.929 31.6628 28.2022C32.2281 27.5888 32.7388 26.9264 33.1891 26.2224C33.9829 24.8448 34.4025 23.2794 34.4052 21.685C34.3748 21.519 34.3749 21.3407 34.3627 21.1624Z" fill="#232323"/>
<path d="M25.4849 9.66509C25.7268 9.66509 25.9587 9.56793 26.1297 9.39498C26.3008 9.22202 26.397 8.98744 26.397 8.74285V6.22205C26.397 5.97745 26.3008 5.74287 26.1297 5.56992C25.9587 5.39696 25.7268 5.2998 25.4849 5.2998C25.243 5.2998 25.011 5.39696 24.84 5.56992C24.6689 5.74287 24.5728 5.97745 24.5728 6.22205V8.74285C24.5728 8.98744 24.6689 9.22202 24.84 9.39498C25.011 9.56793 25.243 9.66509 25.4849 9.66509Z" fill="#232323"/>
<path d="M15.8895 13.0159C16.0613 13.1871 16.2929 13.2831 16.5341 13.2831C16.7753 13.2831 17.0069 13.1871 17.1787 13.0159C17.264 12.9307 17.3317 12.8292 17.3779 12.7173C17.4241 12.6055 17.448 12.4854 17.448 12.3642C17.448 12.2429 17.4241 12.1229 17.3779 12.011C17.3317 11.8992 17.264 11.7977 17.1787 11.7125L15.0322 9.53598C14.9474 9.44954 14.8464 9.38093 14.7353 9.33411C14.6241 9.28729 14.505 9.26318 14.3846 9.26318C14.2642 9.26318 14.145 9.28729 14.0338 9.33411C13.9227 9.38093 13.8217 9.44954 13.7369 9.53598C13.5676 9.70969 13.4726 9.94379 13.4726 10.1877C13.4726 10.4316 13.5676 10.6657 13.7369 10.8394L15.8895 13.0159Z" fill="#232323"/>
<path d="M12.7154 20.4061H9.91211C9.6702 20.4061 9.43827 20.5033 9.26722 20.6763C9.09617 20.8492 9 21.0838 9 21.3284C9 21.573 9.09617 21.8076 9.26722 21.9805C9.43827 22.1535 9.6702 22.2506 9.91211 22.2506H12.7154C12.9573 22.2506 13.1892 22.1535 13.3603 21.9805C13.5313 21.8076 13.6275 21.573 13.6275 21.3284C13.6275 21.0838 13.5313 20.8492 13.3603 20.6763C13.1892 20.5033 12.9573 20.4061 12.7154 20.4061Z" fill="#232323"/>
<path d="M15.6646 29.7392L13.6823 31.7436C13.597 31.8288 13.5291 31.9303 13.4829 32.0421C13.4367 32.154 13.413 32.274 13.413 32.3953C13.413 32.5165 13.4367 32.6366 13.4829 32.7485C13.5291 32.8603 13.597 32.9618 13.6823 33.047C13.7665 33.1333 13.8669 33.2017 13.9775 33.2485C14.0882 33.2952 14.2068 33.3193 14.3267 33.3193C14.4466 33.3193 14.5654 33.2952 14.676 33.2485C14.7867 33.2017 14.887 33.1333 14.9713 33.047L16.9597 31.0427C17.129 30.869 17.2239 30.6348 17.2239 30.3909C17.2239 30.147 17.129 29.9129 16.9597 29.7392C16.8749 29.6528 16.7741 29.5842 16.6629 29.5374C16.5518 29.4905 16.4325 29.4664 16.3121 29.4664C16.1917 29.4664 16.0725 29.4905 15.9613 29.5374C15.8502 29.5842 15.7494 29.6528 15.6646 29.7392Z" fill="#232323"/>
<path d="M34.7884 29.9606C34.6163 29.7875 34.3835 29.6903 34.1408 29.6903C33.8981 29.6903 33.6652 29.7875 33.4931 29.9606C33.3238 30.1343 33.2288 30.3684 33.2288 30.6123C33.2288 30.8562 33.3238 31.0903 33.4931 31.264L35.2566 33.0409C35.3409 33.1271 35.4412 33.1956 35.5519 33.2423C35.6625 33.2891 35.7811 33.3131 35.901 33.3131C36.0209 33.3131 36.1397 33.2891 36.2503 33.2423C36.361 33.1956 36.4614 33.1271 36.5456 33.0409C36.6309 32.9556 36.6986 32.8542 36.7449 32.7423C36.7911 32.6304 36.8149 32.5104 36.8149 32.3891C36.8149 32.2679 36.7911 32.1479 36.7449 32.036C36.6986 31.9241 36.6309 31.8226 36.5456 31.7374L34.7884 29.9606Z" fill="#232323"/>
<path d="M41.0879 20.7258H37.9442C37.7023 20.7258 37.4704 20.823 37.2993 20.996C37.1283 21.1689 37.0321 21.4035 37.0321 21.6481C37.0321 21.8927 37.1283 22.1273 37.2993 22.3002C37.4704 22.4732 37.7023 22.5703 37.9442 22.5703H41.0879C41.3298 22.5703 41.5619 22.4732 41.7329 22.3002C41.904 22.1273 42 21.8927 42 21.6481C42 21.4035 41.904 21.1689 41.7329 20.996C41.5619 20.823 41.3298 20.7258 41.0879 20.7258Z" fill="#232323"/>
<path d="M35.0072 13.2434L37.0808 11.1468C37.2501 10.9731 37.3451 10.739 37.3451 10.4951C37.3451 10.2512 37.2501 10.0171 37.0808 9.84339C36.908 9.67179 36.6753 9.57565 36.4331 9.57565C36.1909 9.57565 35.9584 9.67179 35.7855 9.84339L33.7182 11.9399C33.5488 12.1136 33.4539 12.3478 33.4539 12.5917C33.4539 12.8356 33.5488 13.0697 33.7182 13.2434C33.89 13.4146 34.1215 13.5106 34.3627 13.5106C34.604 13.5106 34.8354 13.4146 35.0072 13.2434Z" fill="#232323"/>
<path d="M27.4185 37.2647H23.5877C23.5338 37.2637 23.4806 37.2759 23.4324 37.3001C23.3842 37.3244 23.3424 37.3601 23.3108 37.4042C23.2791 37.4482 23.2586 37.4994 23.2507 37.5532C23.2428 37.6071 23.2479 37.6621 23.2655 37.7136C23.4319 38.1786 23.7359 38.5804 24.1363 38.8642C24.5368 39.1481 25.0141 39.3002 25.5032 39.2998C25.9914 39.2998 26.4678 39.1475 26.8672 38.8636C27.2666 38.5797 27.5695 38.1781 27.7347 37.7136C27.7522 37.6626 27.7573 37.6082 27.7497 37.5548C27.7421 37.5014 27.722 37.4506 27.6911 37.4067C27.6601 37.3628 27.6193 37.327 27.5719 37.3023C27.5245 37.2776 27.4719 37.2647 27.4185 37.2647Z" fill="#232323"/>
<path d="M27.9537 34.4857H22.8458C22.6265 34.4857 22.4161 34.5738 22.261 34.7306C22.1059 34.8874 22.0189 35.1001 22.0189 35.3219V35.5002C22.0205 35.7209 22.1083 35.932 22.2632 36.0875C22.4182 36.2429 22.6275 36.3302 22.8458 36.3302H27.9537C28.1719 36.3302 28.3813 36.2429 28.5362 36.0875C28.6911 35.932 28.7789 35.7209 28.7806 35.5002V35.3219C28.7806 35.1001 28.6935 34.8874 28.5384 34.7306C28.3833 34.5738 28.173 34.4857 27.9537 34.4857Z" fill="#232323"/>
</svg>
