<svg width="45" height="46" viewBox="0 0 45 46" fill="none" xmlns="http://www.w3.org/2000/svg">
<circle cx="22.5" cy="22.5" r="22.5" fill="#B3A0FF"/>
<path d="M12.1879 17.8617C11.7308 17.6233 11.3234 17.3004 10.9875 16.9102C10.652 16.5154 10.4291 16.038 10.3422 15.528C10.3082 15.3457 10.291 15.1606 10.2907 14.9752C10.2867 14.4762 10.3994 13.9832 10.6198 13.5351C10.8141 13.1245 11.151 12.7979 11.5684 12.6158C11.7865 12.5223 12.0215 12.4742 12.2589 12.4744C12.8356 12.4894 13.3856 12.7187 13.8011 13.1173C13.8011 12.6415 13.7624 12.1594 13.7624 11.6901V11.5422C13.2946 11.3116 12.7809 11.1885 12.2589 11.1822C11.8492 11.1834 11.4437 11.2642 11.065 11.4201C10.3714 11.7237 9.80719 12.2608 9.47116 12.9373C9.15667 13.5683 8.99533 14.2642 9.0001 14.9687C9.00072 15.2296 9.02439 15.4899 9.071 15.7466C9.18951 16.4731 9.50159 17.1547 9.97452 17.7202C10.6508 18.4813 11.5068 19.0625 12.4653 19.411C13.3816 19.7494 14.3167 20.0349 15.266 20.266C15.6971 20.3805 16.1162 20.5355 16.5178 20.7289C16.1113 20.1631 15.7241 19.5717 15.3627 18.961C14.2659 18.7162 13.2007 18.3474 12.1879 17.8617Z" fill="white"/>
<path d="M36.5482 12.9437C36.2122 12.2672 35.6479 11.7301 34.9543 11.4265C34.5759 11.2701 34.1702 11.1893 33.7604 11.1886C33.2385 11.1949 32.7248 11.318 32.257 11.5487C32.257 11.6001 32.257 11.6451 32.257 11.6965C32.257 12.1658 32.2569 12.648 32.2118 13.1301C32.6259 12.7294 33.1768 12.4997 33.754 12.4873C33.9934 12.4876 34.2305 12.5357 34.451 12.6287C34.8653 12.813 35.1995 13.1392 35.3931 13.548C35.6135 13.9961 35.7262 14.4891 35.7222 14.988C35.7208 15.1732 35.7056 15.358 35.677 15.5409C35.5898 16.0508 35.3669 16.5281 35.0317 16.9231C34.4891 17.5093 33.8082 17.9512 33.0507 18.2088C32.2619 18.5053 31.456 18.7543 30.6373 18.9546C30.2759 19.5653 29.8887 20.1567 29.4886 20.7225C29.888 20.5291 30.305 20.3741 30.734 20.2596C32.0193 19.9777 33.2669 19.5462 34.451 18.9738C35.0551 18.6491 35.5916 18.2128 36.0319 17.6881C36.4986 17.1187 36.8099 16.4389 36.9355 15.7145C36.9799 15.4576 37.0014 15.1973 36.9999 14.9366C37.0047 14.2466 36.8502 13.5647 36.5482 12.9437Z" fill="white"/>
<path d="M28.6368 29.6005H27.3461C26.9129 29.6014 26.484 29.5153 26.0848 29.3474C25.6857 29.1795 25.3245 28.9333 25.023 28.6234C24.4316 28.0226 24.1004 27.2147 24.1002 26.3733C24.1016 25.9115 24.2028 25.4554 24.3971 25.0361C25.0903 23.6144 25.9295 22.2679 26.9009 21.0182C27.7969 19.8608 28.6078 18.6405 29.3273 17.3667C29.719 16.5562 29.9761 15.6877 30.0887 14.7952C30.2408 13.7629 30.3142 12.7206 30.3082 11.6772C30.3082 10.5393 30.2372 9.44645 30.1533 8.55286C30.1325 8.40482 30.0604 8.26865 29.9497 8.16774C29.839 8.06684 29.6964 8.00752 29.5466 8H16.447C16.2971 8.00752 16.1546 8.06684 16.0439 8.16774C15.9331 8.26865 15.8611 8.40482 15.8403 8.55286C15.7564 9.44645 15.6919 10.5393 15.6919 11.6772C15.6837 12.7204 15.755 13.7627 15.9049 14.7952C16.0175 15.6877 16.2746 16.5562 16.6663 17.3667C17.3881 18.6405 18.2011 19.8609 19.0991 21.0182C20.0683 22.2694 20.9073 23.6157 21.603 25.0361C21.7919 25.4524 21.8908 25.9036 21.8933 26.3605C21.8916 27.1965 21.5629 27.999 20.9771 28.5977C20.6788 28.9078 20.3199 29.154 19.9226 29.3209C19.5253 29.4878 19.098 29.572 18.6668 29.5684H17.5182C17.1659 29.5715 16.8227 29.6797 16.5329 29.8791C16.243 30.0785 16.0197 30.3599 15.892 30.687H30.2565C30.1241 30.367 29.8997 30.0931 29.6115 29.8997C29.3233 29.7064 28.9842 29.6023 28.6368 29.6005Z" fill="white"/>
<path d="M31.489 32.6478H14.5239C13.8896 32.6478 13.3753 33.1601 13.3753 33.7921V35.8557C13.3753 36.4877 13.8896 37 14.5239 37H31.489C32.1234 37 32.6377 36.4877 32.6377 35.8557V33.7921C32.6377 33.1601 32.1234 32.6478 31.489 32.6478Z" fill="white"/>
</svg>
