<svg width="48" height="45" viewBox="0 0 48 45" fill="none" xmlns="http://www.w3.org/2000/svg">
<circle cx="25.5" cy="22.5" r="22.5" fill="#E2F163"/>
<circle cx="6.5" cy="9.5" r="6.5" fill="#B3A0FF"/>
<path d="M37.0857 16.1458L31.9752 14.8427C31.3434 14.6794 30.7965 14.2788 30.4457 13.7222L27.6417 9.20246C27.4173 8.83151 27.1018 8.52577 26.7259 8.31506C26.35 8.10435 25.9265 7.99584 25.4969 8.00012C25.0683 7.99693 24.6462 8.10596 24.2715 8.31662C23.8968 8.52728 23.5821 8.83243 23.3582 9.20246L20.548 13.7222C20.2011 14.2797 19.6558 14.6809 19.0249 14.8427L13.9144 16.1458C13.4987 16.2514 13.1162 16.4623 12.803 16.7585C12.4898 17.0548 12.2561 17.4267 12.1238 17.8395C11.9914 18.2523 11.9646 18.6923 12.0462 19.1183C12.1278 19.5444 12.3149 19.9425 12.5901 20.2752L15.9661 24.3732C16.3835 24.8792 16.5927 25.5283 16.5505 26.1862L16.196 31.5117C16.1731 31.8619 16.2213 32.2132 16.3377 32.5439C16.454 32.8745 16.6362 33.1775 16.8727 33.4341C17.1092 33.6907 17.3952 33.8955 17.713 34.0358C18.0307 34.1762 18.3736 34.2491 18.7202 34.25C19.0438 34.2498 19.3644 34.1879 19.6653 34.0675L24.5581 32.0783C24.8572 31.9591 25.1755 31.8973 25.4969 31.8957C25.8203 31.8966 26.1408 31.9585 26.4419 32.0783L31.3348 34.0675C31.6357 34.1879 31.9563 34.2498 32.2799 34.25C32.6265 34.2491 32.9692 34.1762 33.287 34.0358C33.6047 33.8955 33.8907 33.6907 34.1273 33.4341C34.3638 33.1775 34.5459 32.8745 34.6623 32.5439C34.7787 32.2132 34.8269 31.8619 34.8039 31.5117L34.4496 26.1862C34.4074 25.5283 34.6166 24.8792 35.034 24.3732L38.4099 20.2752C38.685 19.9425 38.8722 19.5444 38.9537 19.1183C39.0353 18.6923 39.0087 18.2523 38.8763 17.8395C38.744 17.4267 38.5101 17.0548 38.1969 16.7585C37.8837 16.4623 37.5014 16.2514 37.0857 16.1458Z" fill="#232323"/>
</svg>
