<svg width="45" height="45" viewBox="0 0 45 45" fill="none" xmlns="http://www.w3.org/2000/svg">
<circle cx="22.5" cy="22.5" r="22.5" fill="#B3A0FF"/>
<path d="M31.3627 20.8626C31.2151 18.6523 30.2739 16.5727 28.7162 15.0148C27.1586 13.4569 25.0918 12.5279 22.9044 12.4025H22.1139C19.9264 12.5279 17.8596 13.4569 16.302 15.0148C14.7444 16.5727 13.8034 18.6523 13.6557 20.8626C13.6557 21.0347 13.6557 21.213 13.6557 21.3852C13.6584 22.9796 14.0779 24.545 14.8718 25.9226C15.3221 26.6266 15.8328 27.289 16.3981 27.9024C17.0677 28.6276 17.616 29.4582 18.0216 30.3617C18.277 30.9765 18.4472 31.5913 18.6296 32.1078C18.7504 32.4558 18.9748 32.7573 19.2721 32.971C19.5695 33.1846 19.9249 33.2997 20.2897 33.3005H24.7651C25.1305 33.2992 25.4865 33.1839 25.7847 32.9705C26.0829 32.757 26.3086 32.4558 26.4312 32.1078C26.6197 31.5729 26.79 30.9765 27.0393 30.3617C27.4471 29.4595 27.9952 28.6292 28.6628 27.9024C29.2281 27.289 29.7388 26.6266 30.1891 25.9226C30.9829 24.545 31.4025 22.9796 31.4052 21.3852C31.3748 21.2192 31.3749 21.0409 31.3627 20.8626Z" fill="white"/>
<path d="M22.4849 9.36528C22.7268 9.36528 22.9587 9.26813 23.1297 9.09517C23.3008 8.92222 23.397 8.68764 23.397 8.44304V5.92224C23.397 5.67765 23.3008 5.44307 23.1297 5.27011C22.9587 5.09716 22.7268 5 22.4849 5C22.243 5 22.011 5.09716 21.84 5.27011C21.6689 5.44307 21.5728 5.67765 21.5728 5.92224V8.44304C21.5728 8.68764 21.6689 8.92222 21.84 9.09517C22.011 9.26813 22.243 9.36528 22.4849 9.36528Z" fill="white"/>
<path d="M12.8895 12.7161C13.0613 12.8873 13.2929 12.9833 13.5341 12.9833C13.7753 12.9833 14.0069 12.8873 14.1787 12.7161C14.264 12.6309 14.3317 12.5294 14.3779 12.4175C14.4241 12.3057 14.448 12.1856 14.448 12.0644C14.448 11.9431 14.4241 11.8231 14.3779 11.7112C14.3317 11.5994 14.264 11.4979 14.1787 11.4127L12.0322 9.23618C11.9474 9.14974 11.8464 9.08113 11.7353 9.0343C11.6241 8.98748 11.505 8.96338 11.3846 8.96338C11.2642 8.96338 11.145 8.98748 11.0338 9.0343C10.9227 9.08113 10.8217 9.14974 10.7369 9.23618C10.5676 9.40988 10.4726 9.64399 10.4726 9.88789C10.4726 10.1318 10.5676 10.3659 10.7369 10.5396L12.8895 12.7161Z" fill="white"/>
<path d="M9.71538 20.1063H6.91211C6.6702 20.1063 6.43827 20.2035 6.26722 20.3764C6.09617 20.5494 6 20.784 6 21.0286C6 21.2732 6.09617 21.5078 6.26722 21.6807C6.43827 21.8537 6.6702 21.9508 6.91211 21.9508H9.71538C9.95728 21.9508 10.1892 21.8537 10.3603 21.6807C10.5313 21.5078 10.6275 21.2732 10.6275 21.0286C10.6275 20.784 10.5313 20.5494 10.3603 20.3764C10.1892 20.2035 9.95728 20.1063 9.71538 20.1063Z" fill="white"/>
<path d="M12.6646 29.4394L10.6823 31.4438C10.597 31.529 10.5291 31.6305 10.4829 31.7423C10.4367 31.8542 10.413 31.9742 10.413 32.0955C10.413 32.2167 10.4367 32.3368 10.4829 32.4486C10.5291 32.5605 10.597 32.662 10.6823 32.7472C10.7665 32.8335 10.8669 32.9019 10.9775 32.9487C11.0882 32.9954 11.2068 33.0195 11.3267 33.0195C11.4466 33.0195 11.5654 32.9954 11.676 32.9487C11.7867 32.9019 11.887 32.8335 11.9713 32.7472L13.9597 30.7429C14.129 30.5692 14.2239 30.335 14.2239 30.0911C14.2239 29.8472 14.129 29.6131 13.9597 29.4394C13.8749 29.353 13.7741 29.2844 13.6629 29.2376C13.5518 29.1907 13.4325 29.1666 13.3121 29.1666C13.1917 29.1666 13.0725 29.1907 12.9613 29.2376C12.8502 29.2844 12.7494 29.353 12.6646 29.4394Z" fill="white"/>
<path d="M31.7884 29.6608C31.6163 29.4877 31.3835 29.3905 31.1408 29.3905C30.8981 29.3905 30.6652 29.4877 30.4931 29.6608C30.3238 29.8345 30.2288 30.0686 30.2288 30.3125C30.2288 30.5564 30.3238 30.7905 30.4931 30.9642L32.2566 32.741C32.3409 32.8273 32.4412 32.8958 32.5519 32.9425C32.6625 32.9893 32.7811 33.0133 32.901 33.0133C33.0209 33.0133 33.1397 32.9893 33.2503 32.9425C33.361 32.8958 33.4614 32.8273 33.5456 32.741C33.6309 32.6558 33.6986 32.5544 33.7449 32.4425C33.7911 32.3306 33.8149 32.2106 33.8149 32.0893C33.8149 31.9681 33.7911 31.848 33.7449 31.7362C33.6986 31.6243 33.6309 31.5228 33.5456 31.4376L31.7884 29.6608Z" fill="white"/>
<path d="M38.0879 20.426H34.9442C34.7023 20.426 34.4704 20.5232 34.2993 20.6962C34.1283 20.8691 34.0321 21.1037 34.0321 21.3483C34.0321 21.5929 34.1283 21.8275 34.2993 22.0004C34.4704 22.1734 34.7023 22.2705 34.9442 22.2705H38.0879C38.3298 22.2705 38.5619 22.1734 38.7329 22.0004C38.904 21.8275 39 21.5929 39 21.3483C39 21.1037 38.904 20.8691 38.7329 20.6962C38.5619 20.5232 38.3298 20.426 38.0879 20.426Z" fill="white"/>
<path d="M32.0072 12.9436L34.0808 10.847C34.2501 10.6733 34.3451 10.4392 34.3451 10.1953C34.3451 9.9514 34.2501 9.7173 34.0808 9.54359C33.908 9.37199 33.6753 9.27584 33.4331 9.27584C33.1909 9.27584 32.9584 9.37199 32.7855 9.54359L30.7182 11.6401C30.5488 11.8138 30.4539 12.048 30.4539 12.2919C30.4539 12.5358 30.5488 12.7699 30.7182 12.9436C30.89 13.1148 31.1215 13.2108 31.3627 13.2108C31.604 13.2108 31.8354 13.1148 32.0072 12.9436Z" fill="white"/>
<path d="M24.4185 36.9649H20.5877C20.5338 36.9639 20.4806 36.976 20.4324 37.0003C20.3842 37.0246 20.3424 37.0603 20.3108 37.1043C20.2791 37.1484 20.2586 37.1996 20.2507 37.2534C20.2428 37.3073 20.2479 37.3623 20.2655 37.4137C20.4319 37.8788 20.7359 38.2806 21.1363 38.5644C21.5368 38.8483 22.0141 39.0004 22.5032 39C22.9914 39 23.4678 38.8477 23.8672 38.5638C24.2666 38.2799 24.5695 37.8783 24.7347 37.4137C24.7522 37.3628 24.7573 37.3084 24.7497 37.255C24.7421 37.2016 24.722 37.1508 24.6911 37.1069C24.6601 37.063 24.6193 37.0272 24.5719 37.0025C24.5245 36.9778 24.4719 36.9649 24.4185 36.9649Z" fill="white"/>
<path d="M24.9537 34.1859H19.8458C19.6265 34.1859 19.4161 34.274 19.261 34.4308C19.1059 34.5876 19.0189 34.8003 19.0189 35.0221V35.2004C19.0205 35.4211 19.1083 35.6322 19.2632 35.7876C19.4182 35.9431 19.6275 36.0304 19.8458 36.0304H24.9537C25.1719 36.0304 25.3813 35.9431 25.5362 35.7876C25.6911 35.6322 25.7789 35.4211 25.7806 35.2004V35.0221C25.7806 34.8003 25.6935 34.5876 25.5384 34.4308C25.3833 34.274 25.173 34.1859 24.9537 34.1859Z" fill="white"/>
</svg>
