<svg width="48" height="45" viewBox="0 0 48 45" fill="none" xmlns="http://www.w3.org/2000/svg">
<circle cx="25.5" cy="22.5" r="22.5" fill="#E2F163"/>
<circle cx="6.5" cy="9.5" r="6.5" fill="#B3A0FF"/>
<path d="M33.5757 15.6852C32.7321 15.6852 31.9231 15.3589 31.3265 14.778C30.73 14.1972 30.3948 13.4095 30.3948 12.588V7H17.0332C16.4936 6.99935 15.9756 7.20682 15.5927 7.57705C15.2125 7.94985 14.9993 8.45416 15 8.97956V35.0277C14.9992 35.2858 15.0512 35.5414 15.1529 35.7797C15.2547 36.018 15.4042 36.2342 15.5927 36.4156C15.781 36.6013 16.0053 36.7485 16.2526 36.8489C16.4999 36.9492 16.7653 37.0006 17.0332 37H36.9668C37.2347 37.0006 37.5001 36.9492 37.7474 36.8489C37.9947 36.7485 38.219 36.6013 38.4073 36.4156C38.5958 36.2342 38.7453 36.018 38.847 35.7797C38.9488 35.5414 39.0008 35.2858 39 35.0277V15.6852H33.5757ZM18.4211 10.8276H22.7274C23.0259 10.8276 23.3121 10.943 23.5232 11.1485C23.7342 11.354 23.8528 11.6327 23.8528 11.9233C23.8528 12.2139 23.7342 12.4926 23.5232 12.6981C23.3121 12.9036 23.0259 13.019 22.7274 13.019H18.4211C18.1226 13.019 17.8364 12.9036 17.6254 12.6981C17.4143 12.4926 17.2958 12.2139 17.2958 11.9233C17.2958 11.6327 17.4143 11.354 17.6254 11.1485C17.8364 10.943 18.1226 10.8276 18.4211 10.8276ZM18.4211 17.1388H27.0262C27.3247 17.1388 27.6109 17.2542 27.822 17.4597C28.033 17.6652 28.1516 17.9439 28.1516 18.2345C28.1516 18.5251 28.033 18.8038 27.822 19.0093C27.6109 19.2147 27.3247 19.3302 27.0262 19.3302H18.4211C18.1226 19.3302 17.8364 19.2147 17.6254 19.0093C17.4143 18.8038 17.2958 18.5251 17.2958 18.2345C17.2958 17.9439 17.4143 17.6652 17.6254 17.4597C17.8364 17.2542 18.1226 17.1388 18.4211 17.1388ZM18.301 23.9613H35.6764C35.9749 23.9613 36.2611 24.0767 36.4722 24.2822C36.6832 24.4877 36.8018 24.7664 36.8018 25.057C36.8018 25.3476 36.6832 25.6262 36.4722 25.8317C36.2611 26.0372 35.9749 26.1527 35.6764 26.1527H18.2711C17.9726 26.1527 17.6864 26.0372 17.4754 25.8317C17.2643 25.6262 17.1458 25.3476 17.1458 25.057C17.1428 24.9113 17.1696 24.7664 17.2248 24.631C17.28 24.4955 17.3625 24.3721 17.4673 24.268C17.5721 24.1639 17.6972 24.0813 17.8352 24.0248C17.9732 23.9684 18.1214 23.9393 18.2711 23.9394L18.301 23.9613ZM35.8189 32.7049H18.4211C18.1226 32.7049 17.8364 32.5895 17.6254 32.384C17.4143 32.1785 17.2958 31.8998 17.2958 31.6092C17.2958 31.3186 17.4143 31.0399 17.6254 30.8344C17.8364 30.6289 18.1226 30.5135 18.4211 30.5135H35.849C36.1474 30.5135 36.4337 30.6289 36.6447 30.8344C36.8558 31.0399 36.9743 31.3186 36.9743 31.6092C36.9744 31.7556 36.9443 31.9005 36.8858 32.0354C36.8274 32.1702 36.7419 32.2924 36.6342 32.3945C36.5265 32.4966 36.3989 32.5767 36.2589 32.63C36.1189 32.6833 35.9692 32.7088 35.8189 32.7049Z" fill="#232323"/>
<path d="M33.5757 13.4938H39L32.6455 7.4894V12.6026C32.6464 12.7206 32.6713 12.8373 32.7186 12.9459C32.7659 13.0546 32.8346 13.153 32.921 13.2358C33.0074 13.3185 33.1097 13.384 33.222 13.4282C33.3344 13.4725 33.4545 13.4948 33.5757 13.4938Z" fill="#232323"/>
</svg>
